<svg xmlns="http://www.w3.org/2000/svg" width="42.616" height="49.277" viewBox="0 0 42.616 49.277">
  <g id="money-bag" transform="translate(-33.64 0)">
    <path id="Tracé_7731" data-name="Tracé 7731" d="M76.255,170.564c0,9.664-9.505,9.109-21.308,9.109s-21.308.475-21.308-9.109c0-9.664,9.505-25.744,21.308-25.744C66.75,144.9,76.255,160.979,76.255,170.564Z" transform="translate(0 -130.481)" fill="#f2b233"/>
    <path id="Tracé_7732" data-name="Tracé 7732" d="M248.84,145.62c11.8,0,21.308,16.08,21.308,25.744s-9.505,9.109-21.308,9.109" transform="translate(-193.892 -131.202)" fill="#dd981d"/>
    <path id="Tracé_7733" data-name="Tracé 7733" d="M144.04,4.437C144.04-.236,148.713,0,154.417,0s10.377-.238,10.377,4.436-4.673,12.515-10.377,12.515S144.04,9.111,144.04,4.437Z" transform="translate(-99.469 0)" fill="#f2b233"/>
    <path id="Tracé_7734" data-name="Tracé 7734" d="M248.84,0c5.7,0,10.377-.238,10.377,4.436s-4.673,12.515-10.377,12.515" transform="translate(-193.892 0)" fill="#dd981d"/>
    <path id="Tracé_7735" data-name="Tracé 7735" d="M175.059,137.842a1.42,1.42,0,0,1-1.426,1.426H158.266a1.42,1.42,0,0,1-1.426-1.426v-.4a1.42,1.42,0,0,1,1.426-1.426h15.446a1.42,1.42,0,0,1,1.426,1.426v.4Z" transform="translate(-111.002 -122.553)" fill="#04af76"/>
    <path id="Tracé_7736" data-name="Tracé 7736" d="M168.84,136.82h15.684a1.42,1.42,0,0,1,1.426,1.426v.4a1.563,1.563,0,0,1-1.584,1.426" transform="translate(-121.813 -123.273)" fill="#008c61"/>
    <circle id="Ellipse_227" data-name="Ellipse 227" cx="9.505" cy="9.505" r="9.505" transform="translate(45.442 24.082)" fill="#04af76"/>
    <path id="Tracé_7737" data-name="Tracé 7737" d="M180.84,245.812a9.522,9.522,0,1,1,13.466,13.466" transform="translate(-132.625 -218.958)" fill="#008c61"/>
    <path id="Tracé_7738" data-name="Tracé 7738" d="M212.008,279.87v-1.98a6.745,6.745,0,0,1-3.168-.792l.475-2.139a6.735,6.735,0,0,0,3.01.792c1.03,0,1.743-.4,1.743-1.109s-.554-1.109-1.98-1.584c-1.98-.634-3.248-1.584-3.248-3.327,0-1.584.713-2.852,3.089-3.248V264.82h1.584V266.4a5.2,5.2,0,0,1,2.693.634l-.475,2.06a5.349,5.349,0,0,0-2.614-.634c-1.188,0-1.584.475-1.584,1.03,0,.634.634.951,2.218,1.584,2.139.792,3.01,1.743,3.01,3.406s-.871,3.01-3.248,3.406v1.98Z" transform="translate(-157.853 -238.6)" fill="#fff6e1"/>
    <g id="Groupe_7383" data-name="Groupe 7383" transform="translate(54.948 26.22)">
      <path id="Tracé_7739" data-name="Tracé 7739" d="M248.84,264.82v3.644h.4a5.349,5.349,0,0,1,2.614.634l.475-2.06a4.7,4.7,0,0,0-2.693-.634V264.82Z" transform="translate(-248.84 -264.82)" fill="#ffeebd"/>
      <path id="Tracé_7740" data-name="Tracé 7740" d="M249.87,323.616c-.4-.158-.792-.317-1.03-.4v2.693c.792.4,1.267.792,1.267,1.347,0,.634-.475.951-1.267,1.109v4.119h.792v-2.059c2.376-.4,3.248-1.743,3.248-3.406S252.008,324.408,249.87,323.616Z" transform="translate(-248.84 -317.438)" fill="#ffeebd"/>
    </g>
  </g>
</svg>
