<svg width="26.152969" height="24.000000" viewBox="0 0 26.153 24" fill="none" xmlns="http://www.w3.org/2000/svg" xmlns:xlink="http://www.w3.org/1999/xlink">
	<desc>
			Created with Pixso.
	</desc>
	<defs/>
	<path id="Rectangle 337" d="M2.44545 7L2.44545 6C2.44545 4.34314 3.78859 3 5.44545 3L21.4454 3C23.1023 3 24.4454 4.34314 24.4454 6L24.4454 18C24.4454 19.6569 23.1023 21 21.4454 21L16.4454 21" stroke="#EC5542" stroke-opacity="1.000000" strokeWidth="2.000000" strokeLinejoin="round" strokeLinecap="round"/>
	<path id="Ellipse 44" d="M2.25775 10.6568Q4.24687 10.6568 6.08459 11.418Q7.9223 12.1792 9.32883 13.5858Q10.7354 14.9922 11.4966 16.83Q12.2578 18.6677 12.2578 20.6568L10.2578 20.6568Q10.2578 19.0655 9.64879 17.5953Q9.03983 16.1252 7.91461 14.9999Q6.7894 13.8748 5.31923 13.2657Q3.84906 12.6568 2.25775 12.6568L2.25775 10.6568ZM2.27776 12.6368L2.25775 12.6568C1.69775 12.6568 1.25775 12.2168 1.25775 11.6568C1.25775 11.0968 1.69775 10.6568 2.25775 10.6568L2.27776 10.6768L2.27776 12.6368ZM12.2378 20.6368L12.2578 20.6568C12.2578 21.2168 11.8178 21.6568 11.2578 21.6568C10.6978 21.6568 10.2578 21.2168 10.2578 20.6568L10.2778 20.6368L12.2378 20.6368Z" fill="#EC5542" fill-opacity="1.000000" fill-rule="evenodd"/>
	<path id="Ellipse 45" d="M2.25838 15.173Q3.29665 15.173 4.25587 15.5703Q5.2151 15.9677 5.94925 16.7018Q6.68341 17.436 7.08073 18.3952Q7.47807 19.3544 7.47807 20.3927L5.47807 20.3927Q5.47807 19.7523 5.23299 19.1606Q4.9879 18.5688 4.53505 18.116Q4.08218 17.6631 3.49051 17.4181Q2.89882 17.173 2.25838 17.173L2.25838 15.173ZM2.27838 17.153L2.25838 17.173C1.69838 17.173 1.25838 16.733 1.25838 16.173C1.25838 15.613 1.69838 15.173 2.25838 15.173L2.27838 15.193L2.27838 17.153ZM7.45807 20.3727L7.47807 20.3927C7.47807 20.9527 7.03807 21.3927 6.47807 21.3927C5.91806 21.3927 5.47807 20.9527 5.47807 20.3927L5.49806 20.3727L7.45807 20.3727Z" fill="#EC5542" fill-opacity="1.000000" fill-rule="evenodd"/>
</svg>
