<svg fill="#3087B3" height="40px" width="40px" version="1.1" id="Layer_1" xmlns="http://www.w3.org/2000/svg" xmlns:xlink="http://www.w3.org/1999/xlink" viewBox="0 0 512 512" xml:space="preserve"><g id="SVGRepo_bgCarrier" strokeWidth="0"></g><g id="SVGRepo_tracerCarrier" strokeLinecap="round" strokeLinejoin="round"></g><g id="SVGRepo_iconCarrier"> <g> <g> <path d="M484.554,50.286H27.446C12.288,50.286,0,62.574,0,77.732v356.536c0,15.158,12.288,27.446,27.446,27.446h457.107 c15.158,0,27.446-12.288,27.446-27.446V77.732C512,62.574,499.712,50.286,484.554,50.286z M481.732,68.571L256.947,293.357 L32.161,68.571H481.732z M18.286,429.886v-349l174.5,174.5L18.286,429.886z M32.161,443.429l174.5-174.807l43.821,43.669 c1.786,1.786,4.125,2.601,6.464,2.601c2.339,0,4.678-0.931,6.464-2.716l43.824-43.537l174.502,174.79H32.161z M493.714,429.883 L319.216,255.384L493.714,80.886V429.883z"></path> </g> </g> </g></svg>