<svg width="24.000000" height="24.000000" viewBox="0 0 24 24" fill="none" xmlns="http://www.w3.org/2000/svg" xmlns:xlink="http://www.w3.org/1999/xlink">
	<desc>
			Created with Pixso.
	</desc>
	<defs/>
	<rect width="24.000000" height="24.000000" fill="#FFFFFF" fill-opacity="0"/>
	<path d="M3 4C3 2.34315 4.34314 1 6 1L9.42105 1C11.6302 1 13.4211 2.79086 13.4211 5L13.4211 7.5C13.4211 8.32843 14.0926 9 14.9211 9L17 9C19.2091 9 21 10.7909 21 13L21 20C21 21.6569 19.6569 23 18 23L6 23C4.34314 23 3 21.6569 3 20L3 4ZM18 21L6 21Q5.79288 21 5.61612 20.9268Q5.43933 20.8536 5.29291 20.7071Q5.14645 20.5607 5.07321 20.3839Q5 20.2071 5 20L5 4Q5 3.79289 5.07321 3.61612Q5.14645 3.43934 5.29291 3.29289Q5.43933 3.14645 5.61612 3.07322Q5.79291 3 6 3L9.42105 3Q9.66895 3 9.90265 3.05766Q10.0538 3.09495 10.1989 3.15635Q10.3561 3.22283 10.4978 3.31356Q10.6793 3.42978 10.8353 3.58579Q10.9913 3.74179 11.1075 3.92327Q11.1982 4.06494 11.2647 4.22212Q11.3261 4.36729 11.3634 4.5184Q11.4211 4.75209 11.4211 5L11.4211 7.5Q11.4211 7.87172 11.4965 8.22743Q11.5653 8.55186 11.6969 8.86297Q11.8263 9.16887 12.0072 9.44041Q12.1981 9.72674 12.4462 9.97487Q12.6943 10.223 12.9807 10.4138Q13.2522 10.5947 13.5581 10.7241Q13.8692 10.8557 14.1936 10.9245Q14.5493 11 14.9211 11L17 11Q17.2479 11 17.4816 11.0577Q17.6327 11.0949 17.7779 11.1563Q17.9351 11.2228 18.0768 11.3136Q18.2582 11.4298 18.4142 11.5858Q18.5702 11.7418 18.6865 11.9233Q18.7772 12.065 18.8437 12.2221Q18.905 12.3673 18.9423 12.5183Q19 12.7521 19 13L19 20Q19 20.2071 18.9268 20.3839Q18.8535 20.5607 18.7071 20.7071Q18.5607 20.8535 18.3839 20.9268Q18.2071 21 18 21Z" fill="#FFFFFF" fill-opacity="1.000000" fill-rule="evenodd"/>
	<path d="M3 4C3 2.34315 4.34314 1 6 1L9.23392 1C11.8887 1 14.4081 2.1721 16.1181 4.20278L18.8842 7.48749C20.2506 9.11015 21 11.1633 21 13.2847L21 20C21 21.6569 19.6569 23 18 23L6 23C4.34314 23 3 21.6569 3 20L3 4ZM18 21L6 21Q5.79288 21 5.61612 20.9268Q5.43933 20.8536 5.29291 20.7071Q5.14645 20.5607 5.07321 20.3839Q5 20.2071 5 20L5 4Q5 3.79289 5.07321 3.61612Q5.14645 3.43934 5.29291 3.29289Q5.43933 3.14645 5.61612 3.07322Q5.79291 3 6 3L9.23392 3Q10.0082 3 10.7464 3.16331Q11.4846 3.32662 12.1867 3.65324Q12.8888 3.97988 13.4892 4.43935Q14.0896 4.89879 14.5883 5.49105L17.3544 8.77576Q17.7529 9.249 18.0582 9.77621Q18.3636 10.3035 18.5757 10.8848Q18.7879 11.466 18.894 12.066Q19 12.666 19 13.2847L19 20Q19 20.2071 18.9268 20.3839Q18.8535 20.5607 18.7071 20.7071Q18.5607 20.8535 18.3839 20.9268Q18.2071 21 18 21Z" fill="#FFFFFF" fill-opacity="1.000000" fill-rule="evenodd"/>
</svg>
