<svg width="38.000000" height="38.000000" viewBox="0 0 38 38" fill="none" xmlns="http://www.w3.org/2000/svg" xmlns:xlink="http://www.w3.org/1999/xlink">
	<desc>
			Created with Pixso.
	</desc>
	<defs/>
	<rect id="Frame 545" rx="8.000000" width="38.000000" height="38.000000" fill="#DEDEDE" fill-opacity="1.000000"/>
	<path id="Rectangle 331" d="M28 10C29.1046 10 30 10.8954 30 12L30 26C30 27.1046 29.1046 28 28 28L10 28C8.89542 28 8 27.1046 8 26L8 12C8 10.8954 8.89542 10 10 10L28 10Z" stroke="#FFFFFF" stroke-opacity="1.000000" strokeWidth="2.000000" strokeLinejoin="round"/>
	<path id="Vector 45" d="M12.5 28L23.2221 16.3844C23.9399 15.6068 25.1392 15.5229 25.9582 16.1931L30 19.5" stroke="#FFFFFF" stroke-opacity="1.000000" strokeWidth="2.000000" strokeLinejoin="round" strokeLinecap="round"/>
	<path id="Vector 200" d="M8 17L15.75 24.75" stroke="#FFFFFF" stroke-opacity="1.000000" strokeWidth="2.000000"/>
	<path id="Ellipse 47" d="M11.5 20C11.5 19 13.2909 17 15.5 17C17.7091 17 19.5 19 19.5 20" stroke="#FFFFFF" stroke-opacity="1.000000" strokeWidth="2.000000" strokeLinejoin="round" strokeLinecap="round"/>
</svg>
