<svg xmlns="http://www.w3.org/2000/svg" width="129.862" height="135.424" viewBox="0 0 129.862 135.424">
  <g id="Wallet-bro" transform="translate(-42.2 -40.077)">
    <g id="freepik--background-simple--inject-19" transform="translate(42.2 40.077)">
      <path id="Tracé_7494" data-name="Tracé 7494" d="M130.708,40.081c-11.493.2-20.354,9.595-30.193,15.54C85.659,64.6,66.579,66.421,54.031,78.414A39.873,39.873,0,0,0,42.4,110.836a44.6,44.6,0,0,0,17.085,30.2c5.989,4.643,13.017,7.775,20.189,10.225,7.269,2.479,14.837,4.318,22.518,4.415,10.644.134,21.1-3.085,30.73-7.628,6.7-3.157,13.154-7.016,18.422-12.221a51.515,51.515,0,0,0,11.406-17.441c6.46-16.036,5.433-34.417-.169-50.775C157.947,54.079,146.619,39.807,130.708,40.081Z" transform="translate(-42.2 -40.077)" fill="#2ba7df"/>
      <path id="Tracé_7495" data-name="Tracé 7495" d="M130.708,40.081c-11.493.2-20.354,9.595-30.193,15.54C85.659,64.6,66.579,66.421,54.031,78.414A39.873,39.873,0,0,0,42.4,110.836a44.6,44.6,0,0,0,17.085,30.2c5.989,4.643,13.017,7.775,20.189,10.225,7.269,2.479,14.837,4.318,22.518,4.415,10.644.134,21.1-3.085,30.73-7.628,6.7-3.157,13.154-7.016,18.422-12.221a51.515,51.515,0,0,0,11.406-17.441c6.46-16.036,5.433-34.417-.169-50.775C157.947,54.079,146.619,39.807,130.708,40.081Z" transform="translate(-42.2 -40.077)" fill="#fff" opacity="0.7"/>
    </g>
    <g id="freepik--Wallet--inject-19" transform="translate(48.423 78.282)">
      <path id="Tracé_7496" data-name="Tracé 7496" d="M156.588,196.684c-.081-2.351-.234-4.858-.487-7.453-.34-5.183-.99-10.023-2.167-13.067h0c-6.482-1.327-40.156,1.146-40.181,1.146l-.209-.937L113.46,176l-.15-.653-.041-.15c-.219-.88-.465-1.752-.752-2.617h0s-25.528-2.279-34-.069h0v.222l.025,2.089c.025,4.043-.069,7.837.14,12v.031h0a.668.668,0,0,0-.122,0,1.8,1.8,0,0,0-1.458,1.183h0a1.789,1.789,0,0,0-.091.756l.112,1.315v.062c.312,3.316.624,6.6.624,6.6h0s.162.016.428.028l1.4.1c-2.985.275-6.245,4.215-6.1,7.6s-3.122,9.766-2.307,13.426c.624,2.86,3.837,7.459,5.4,10.953l-.122.693L69.47,243.6c.468-.687,4.683,17.641,24.26,13.76l13.929-22.693h0a26.871,26.871,0,0,0,4.24-3.987,6.934,6.934,0,0,0,1.314-1.817h0a9.711,9.711,0,0,0,1.127-2.56c.062-.237.128-.471.2-.712,1.137-2.894,2.654-6.844,3.765-9.579,14.675-.437,30.083-1.333,37.82-3.153h.016A81.6,81.6,0,0,0,156.588,196.684ZM81.225,209.507a22.543,22.543,0,0,1-.219-2.551c.172.9.359,1.8.556,2.695C81.45,209.6,81.338,209.551,81.225,209.507Z" transform="translate(-67.178 -168.705)" opacity="0.1"/>
      <path id="Tracé_7497" data-name="Tracé 7497" d="M64.36,288.141s6.27,18.537,25.856,14.656c0,0,4.346-20.4,7.987-23.417,2.348-1.936,7.534-5.408,8.642-7.921s5.561-14.45,6.423-15.886-9.342-17.962-9.342-17.962L82.432,248.7,70.473,269.932S68.179,283.67,64.36,288.141Z" transform="translate(-63.664 -214.14)" fill="#fff"/>
      <path id="Tracé_7498" data-name="Tracé 7498" d="M68.731,346.43s-1.533,11.462-6.6,17.45" transform="translate(-62.13 -288.983)" fill="none" stroke="#263238" stroke-linecap="round" stroke-linejoin="round" stroke-width="0.2"/>
      <path id="Tracé_7499" data-name="Tracé 7499" d="M147.17,348.582s4.321-19.742,7.987-23.417c0,0,8.28-4.815,9.773-10.481a80.21,80.21,0,0,1,3.812-10.5" transform="translate(-120.618 -259.925)" fill="none" stroke="#263238" stroke-linecap="round" stroke-linejoin="round" stroke-width="0.2"/>
      <path id="Tracé_7500" data-name="Tracé 7500" d="M152.721,306.2c-.312-.2,5.011,4.059,5.217,9.879" transform="translate(-124.427 -261.306)" fill="none" stroke="#263238" stroke-linecap="round" stroke-linejoin="round" stroke-width="0.2"/>
      <path id="Tracé_7501" data-name="Tracé 7501" d="M163.809,203.76c-17.26,4.059-72.849,3.525-72.849,3.525a35.851,35.851,0,0,1-1.58-6.351c-1.093-5.779-2.114-13.145-2.114-13.145l-1.839-.128s-.312-3.285-.624-6.6,1.561-3.313,1.561-3.313l-.134-11.478L86.2,163.4c8.468-2.211,34,.069,34,.069l.8,2.766.443,1.961,40.178-1.133C165.292,176.593,163.809,203.76,163.809,203.76Z" transform="translate(-77.7 -162.439)" fill="#2ba7df"/>
      <rect id="Rectangle_3033" data-name="Rectangle 3033" width="30.318" height="9.294" rx="4.647" transform="translate(51.118 14.893) rotate(-2.862)" fill="#263238"/>
      <path id="Tracé_7502" data-name="Tracé 7502" d="M256.833,246.54l.084.89L226.575,248.6l-.025-.8Z" transform="translate(-175.213 -220.281)" fill="#263238"/>
      <path id="Tracé_7503" data-name="Tracé 7503" d="M257.189,256.45l.028.8-30.339,1.121-.028-.8Z" transform="translate(-175.42 -227.097)" fill="#263238"/>
      <path id="Tracé_7504" data-name="Tracé 7504" d="M242.341,176.392s4.477,21.232,2.207,36.693c0,0-28.313,3.322-38.008,2.785l-.4-5.167.812-.125s-3.909-29.493-4.8-33.053C202.16,177.525,235.878,175.062,242.341,176.392Z" transform="translate(-158.439 -171.765)" opacity="0.3"/>
      <path id="Tracé_7505" data-name="Tracé 7505" d="M142.216,286.91l.334,3.906s-28.538,1.249-31.048.34.134-2.357,6.772-2.879S142.216,286.91,142.216,286.91Z" transform="translate(-95.444 -248.047)" fill="#fff" opacity="0.8"/>
      <ellipse id="Ellipse_222" data-name="Ellipse 222" cx="2.607" cy="2.36" rx="2.607" ry="2.36" transform="translate(27.126 17.576)" fill="#263238"/>
      <path id="Tracé_7506" data-name="Tracé 7506" d="M92.77,197.389a101.162,101.162,0,0,0,3.691,19.5c12.105-.1,24.207-.237,36.309-.624a341.211,341.211,0,0,0,36.531-2.9s2.148-18.971-2.207-36.693c-4.815-1-40.046,1.127-40.046,1.127" transform="translate(-83.203 -172.042)" fill="none" stroke="#263238" stroke-linecap="round" stroke-linejoin="round" stroke-width="0.2"/>
      <path id="Tracé_7507" data-name="Tracé 7507" d="M127.561,201.572l.334,3.906-27.164.624a8.2,8.2,0,0,1-3.9-.284,1.075,1.075,0,0,1-.584-1.308,1.551,1.551,0,0,1,1.193-.678,78.763,78.763,0,0,1,10.094-1.221q10.859-.806,21.753-1.09c-.153,0-1.923-14.609-2.12-15.958-.768-5.277-1.5-10.575-2.448-15.824a42.642,42.642,0,0,0-1.464-6c-11.19-.8-22.877-1.539-34-.069.1,4.955-.081,9.367.172,14.344" transform="translate(-80.789 -162.709)" fill="none" stroke="#263238" stroke-linecap="round" stroke-linejoin="round" stroke-width="0.2"/>
      <path id="Tracé_7508" data-name="Tracé 7508" d="M103,299.984a2.42,2.42,0,0,1-.119-.624" transform="translate(-90.157 -256.609)" fill="none" stroke="#263238" stroke-linecap="round" stroke-linejoin="round" stroke-width="0.2"/>
      <path id="Tracé_7509" data-name="Tracé 7509" d="M103.46,284.971c.415-1.04,1.661-2.214,5.049-2.588,6.179-.687,19.649-1.923,27.551-2.223" transform="translate(-90.556 -243.404)" fill="none" stroke="#263238" stroke-linecap="round" stroke-linejoin="round" stroke-width="0.2" stroke-dasharray="3.911 3.911"/>
      <path id="Tracé_7510" data-name="Tracé 7510" d="M209.83,278.666l.624-.022-.084-.624" transform="translate(-163.714 -241.932)" fill="none" stroke="#263238" stroke-linecap="round" stroke-linejoin="round" stroke-width="0.2"/>
      <path id="Tracé_7511" data-name="Tracé 7511" d="M200.436,206.947c-1.421-10.219-2.994-20.364-4.8-30.527" transform="translate(-153.954 -172.055)" fill="none" stroke="#263238" stroke-linecap="round" stroke-linejoin="round" stroke-width="0.2" stroke-dasharray="3.882 3.882"/>
      <path id="Tracé_7512" data-name="Tracé 7512" d="M193.7,173.038l-.112-.624-.624-.044" transform="translate(-152.111 -169.269)" fill="none" stroke="#263238" stroke-linecap="round" stroke-linejoin="round" stroke-width="0.2"/>
      <path id="Tracé_7513" data-name="Tracé 7513" d="M123.258,170.376c-5.192-.347-19.958-1.211-29.808-.537" transform="translate(-83.671 -167.356)" fill="none" stroke="#263238" stroke-linecap="round" stroke-linejoin="round" stroke-width="0.2" stroke-dasharray="4.066 4.066"/>
      <path id="Tracé_7514" data-name="Tracé 7514" d="M90.034,170.54l-.624.05" transform="translate(-80.892 -168.011)" fill="none" stroke="#263238" stroke-linecap="round" stroke-linejoin="round" stroke-width="0.2"/>
      <path id="Tracé_7515" data-name="Tracé 7515" d="M85.219,219.982l-.746-7.962a1.786,1.786,0,0,1,1.677-1.951c4.59-.265,16.461-.89,21.016-.525,2.186.175,4.562.877,5.62,2.969.88,1.723,1.012,4.309-.465,5.726-2.248,2.154-6.513,1.989-9.411,2.092C97.514,220.537,85.222,220.028,85.219,219.982Z" transform="translate(-77.491 -194.76)" fill="none" stroke="#263238" stroke-linecap="round" stroke-linejoin="round" stroke-width="0.2"/>
      <path id="Tracé_7516" data-name="Tracé 7516" d="M119.156,227.614c0-.222,1.137,4.574-3.016,6.157s-23.37,1.083-23.37,1.083v-2.248s13.594.287,15.858.225S118.913,233.521,119.156,227.614Z" transform="translate(-83.203 -207.259)" fill="#263238"/>
      <path id="Tracé_7517" data-name="Tracé 7517" d="M164.49,313.43a11.693,11.693,0,0,1,4.668,5.726" transform="translate(-132.53 -266.286)" fill="none" stroke="#263238" stroke-linecap="round" stroke-linejoin="round" stroke-width="0.2"/>
      <path id="Tracé_7518" data-name="Tracé 7518" d="M84.79,213.846s16.661-.784,20.9-.643,6.316,1.074,6.738,3.731-2.148,4.312-4.2,4.624-22.793.4-22.793.4" transform="translate(-77.715 -197.341)" fill="none" stroke="#263238" stroke-linecap="round" stroke-linejoin="round" stroke-width="0.2" stroke-dasharray="4 4"/>
      <path id="Tracé_7519" data-name="Tracé 7519" d="M82.911,257.628s-2.579-8.958-7.325-10.722c0,0-.937-6.113,1.087-6.451s7.737-4.1,6.245-8.8-5.973,2.357-8.958,2.629-6.245,4.215-6.11,7.606-3.122,9.77-2.307,13.426,5.839,10.179,6.245,13.573" transform="translate(-64.386 -208.936)" fill="#fff" stroke="#263238" stroke-linecap="round" stroke-linejoin="round" stroke-width="0.2"/>
      <path id="Tracé_7520" data-name="Tracé 7520" d="M101.45,230.324s3.575.649,5.517-1.62-.293-2.414-.293-2.414Z" transform="translate(-89.173 -206.354)" fill="#fff" stroke="#263238" stroke-linecap="round" stroke-linejoin="round" stroke-width="0.2"/>
      <path id="Tracé_7521" data-name="Tracé 7521" d="M81,255.41a3.927,3.927,0,0,1,1.836.6" transform="translate(-75.108 -226.382)" fill="none" stroke="#263238" stroke-linecap="round" stroke-linejoin="round" stroke-width="0.2"/>
      <path id="Tracé_7522" data-name="Tracé 7522" d="M80.65,259.57a3.452,3.452,0,0,1,1.786.706" transform="translate(-74.868 -229.243)" fill="none" stroke="#263238" stroke-linecap="round" stroke-linejoin="round" stroke-width="0.2"/>
      <path id="Tracé_7523" data-name="Tracé 7523" d="M111.56,296.676s15.3-.79,19.327-.559" transform="translate(-96.127 -254.35)" fill="none" stroke="#263238" stroke-linecap="round" stroke-linejoin="round" stroke-width="0.2"/>
      <path id="Tracé_7524" data-name="Tracé 7524" d="M161.53,292.164a38.263,38.263,0,0,1,6.245,0" transform="translate(-130.494 -251.565)" fill="none" stroke="#263238" stroke-linecap="round" stroke-linejoin="round" stroke-width="0.2"/>
      <line id="Ligne_36" data-name="Ligne 36" x2="6.229" transform="translate(40.79 41.723)" fill="none" stroke="#263238" stroke-linecap="round" stroke-linejoin="round" stroke-width="0.2"/>
      <path id="Tracé_7525" data-name="Tracé 7525" d="M204.84,183.231s27.361-2.445,38.354-1.049c0,0,2.966,5.455,2.32,33.408a350.772,350.772,0,0,1-37.243,2.77" transform="translate(-160.282 -175.722)" fill="none" stroke="#263238" stroke-linecap="round" stroke-linejoin="round" stroke-width="0.2" stroke-dasharray="4 4"/>
    </g>
    <g id="freepik--Card--inject-19" transform="translate(97.76 57.565)">
      <g id="Groupe_7310" data-name="Groupe 7310" transform="translate(0 2.771)" opacity="0.1">
        <path id="Tracé_7526" data-name="Tracé 7526" d="M289.434,169.1c-.777-3.307-1.917-4.549-3.06-5.5a4,4,0,0,0-1.489-2.941,9.929,9.929,0,0,0-1.249-.937c-1.374-1.03-2.888-2.186-2.888-2.186-.712-2.061-1.677-4.555-2.72-7.01l.053.559c-1.068-2.607-2.114-5.2-2.407-6.063V145c.312.831.624,1.633.968,2.373l-3.909-13.816c-.094-.556-.19-1.1-.287-1.63-.187-1.561-.7-4.5-1.923-4.712a1.015,1.015,0,0,0-.137,0s-1.446-.624-1.446,1.939a3.656,3.656,0,0,0-2.551,3.4,4.564,4.564,0,0,0-.031,1.467c.031.565.1,1.143.184,1.717L261,128.458l-.534-.693-6.832-8.992-9.183-12.114a4.3,4.3,0,0,0-6.026-.821l-11.4,8.658-4.449,3.378A4.361,4.361,0,0,0,221,124.405l19.88,26.168a2.073,2.073,0,0,0-.312-.016,1.9,1.9,0,0,0-1.973-1.127,1.626,1.626,0,0,0-.837.278,1.5,1.5,0,0,0-.559.509,4.444,4.444,0,0,0-.418.6c-.715,1.224-.053,4.218.98,7.874.066.237.131.465.194.678v.034l.265.915c1.012,3.509,2.9,10.4,3.253,13.779.025.312.041.646.047.959.022,3.89-1.7,10.4-.962,13.095.1.353.2.69.3,1.024a30.622,30.622,0,0,0,1.914,5.189c1.055,2.061,2.314,4.037,3.491,6.032q3.241,5.5,6.707,10.866c1.065,1.642,2.31,3.141,3.516,4.683.553.709,1.758,1.774,1.967,2.682,0,0,10.688.884,16.67-2.916l-.562-8.505,4.012-23.058c1.146-1.739,4.683-5.136,5.389-6.21.365-.534.721-1.065,1.068-1.583,2.638-2.463,3.959-4.371,4.54-6.591A3.606,3.606,0,0,0,289.434,169.1Zm-37.427,4.512Zm.428.525-.053-.1a12.632,12.632,0,0,0,3.435,1A7.723,7.723,0,0,1,252.435,174.137Zm4.509,1.033h0l.574.041a4.3,4.3,0,0,1-.574-.041Zm-4.621-1.268-.718-1.424c-1-2.866-3.257-9.623-3.266-9.651h0a39.021,39.021,0,0,0-1.767-5.714,3.4,3.4,0,0,0,3.188-.5l5.464-4.15c.565.34,1.143.646,1.708.915l5.117,4-4.059,16.682Zm20.713-38.423h0c.425,1.992,1.1,4.858,1.986,7.634a50.049,50.049,0,0,1-1.992-7.634Z" transform="translate(-220.147 -104.96)"/>
        <path id="Tracé_7527" data-name="Tracé 7527" d="M315.25,459.45l.031.15S315.272,459.544,315.25,459.45Z" transform="translate(-285.556 -348.768)"/>
      </g>
      <path id="Tracé_7528" data-name="Tracé 7528" d="M348.581,192.538c.312-.206,4.89-2.7,7.181,4.774s4.98,20.186,4.98,20.186l-5.445,1.058a30.135,30.135,0,0,1-9.567-9.411s-6.338-1.642-9.1-5.545c-2.5-3.547,5.208-16.57,5.208-16.57Z" transform="translate(-299.92 -158.634)" fill="#fff"/>
      <path id="Tracé_7529" data-name="Tracé 7529" d="M369.73,234.45c1.349,2.023,3.9,6.279,7.35,7.621" transform="translate(-323.026 -191.248)" fill="none" stroke="#263238" stroke-linecap="round" stroke-linejoin="round" stroke-width="0.2"/>
      <path id="Tracé_7530" data-name="Tracé 7530" d="M357.51,241.42a13.6,13.6,0,0,0,2.922,1.187s3.182,6.3,8.43,8.343" transform="translate(-314.621 -196.042)" fill="none" stroke="#263238" stroke-linecap="round" stroke-linejoin="round" stroke-width="0.2"/>
      <path id="Tracé_7531" data-name="Tracé 7531" d="M348.16,248.85A11.311,11.311,0,0,0,354,251.66s3.182,6.3,8.43,8.343" transform="translate(-308.19 -201.152)" fill="none" stroke="#263238" stroke-linecap="round" stroke-linejoin="round" stroke-width="0.2"/>
      <rect id="Rectangle_3034" data-name="Rectangle 3034" width="28.5" height="46.463" rx="10.92" transform="translate(3.567 17.239) rotate(-37.22)" fill="#263238"/>
      <path id="Tracé_7532" data-name="Tracé 7532" d="M283.449,135.576l-15.842,12.036a4.293,4.293,0,0,1-6.026-.824l-22.9-30.149a4.209,4.209,0,0,1-.768-1.649,4.281,4.281,0,0,1,1.589-4.371l4.452-3.378,11.4-8.661a4.3,4.3,0,0,1,6.026.824l9.189,12.1,6.832,8.992,6.869,9.055a4.3,4.3,0,0,1-.815,6.029Z" transform="translate(-232.289 -97.198)" fill="#2ba7df"/>
      <path id="Tracé_7533" data-name="Tracé 7533" d="M284.078,111.5l-26.608-4.262,11.406-8.658a4.3,4.3,0,0,1,6.026.824Z" transform="translate(-245.817 -97.198)" opacity="0.1"/>
      <path id="Tracé_7534" data-name="Tracé 7534" d="M283.689,173.655l-15.842,12.036a4.293,4.293,0,0,1-6.026-.824l-22.9-30.149a4.208,4.208,0,0,1-.768-1.649l40.009,6.223,6.344,8.352a4.3,4.3,0,0,1-.815,6.01Z" transform="translate(-232.529 -135.278)" opacity="0.1"/>
      <rect id="Rectangle_3035" data-name="Rectangle 3035" width="6.06" height="8.146" rx="3.03" transform="translate(21.496 7.338) rotate(-37.22)" fill="#fff" stroke="#263238" stroke-linecap="round" stroke-linejoin="round" stroke-width="0.2"/>
      <line id="Ligne_37" data-name="Ligne 37" x2="4.83" y2="6.563" transform="translate(23.968 5.456)" fill="#fff" stroke="#263238" stroke-linecap="round" stroke-linejoin="round" stroke-width="0.2"/>
      <line id="Ligne_38" data-name="Ligne 38" y1="3.662" x2="4.83" transform="translate(23.968 6.93)" fill="#fff" stroke="#263238" stroke-linecap="round" stroke-linejoin="round" stroke-width="0.2"/>
      <path id="Tracé_7535" data-name="Tracé 7535" d="M302.9,222.071l-.824.606L292.02,209.438l.818-.618Z" transform="translate(-269.579 -173.621)" fill="#263238"/>
      <path id="Tracé_7536" data-name="Tracé 7536" d="M307.344,218.727l-.824.612-10.069-13.26.812-.618Z" transform="translate(-272.626 -171.31)" fill="#263238"/>
      <path id="Tracé_7537" data-name="Tracé 7537" d="M311.776,215.388l-.821.606L300.87,202.721l.815-.621Z" transform="translate(-275.666 -168.999)" fill="#263238"/>
      <path id="Tracé_7538" data-name="Tracé 7538" d="M316.535,212.464l-.824.606-9.951-13.1.812-.621Z" transform="translate(-279.029 -167.108)" fill="#263238"/>
      <path id="Tracé_7539" data-name="Tracé 7539" d="M321.321,208.862l-.824.609-9.966-13.12.815-.621Z" transform="translate(-282.31 -164.618)" fill="#263238"/>
      <path id="Tracé_7540" data-name="Tracé 7540" d="M321.321,159.422l-.824.606-9.966-13.12.815-.618Z" transform="translate(-282.31 -130.615)" fill="#263238"/>
      <rect id="Rectangle_3036" data-name="Rectangle 3036" width="1.602" height="46.428" transform="translate(16.03 6.755) rotate(-37.22)" fill="#263238"/>
      <path id="Tracé_7541" data-name="Tracé 7541" d="M283.449,135.576l-15.842,12.036a4.293,4.293,0,0,1-6.026-.824l-22.9-30.149a4.209,4.209,0,0,1-.768-1.649,4.281,4.281,0,0,1,1.589-4.371l4.452-3.378,11.4-8.661a4.3,4.3,0,0,1,6.026.824l9.189,12.1,6.832,8.992,6.869,9.055a4.3,4.3,0,0,1-.815,6.029Z" transform="translate(-232.289 -97.198)" fill="none" stroke="#263238" stroke-linecap="round" stroke-linejoin="round" stroke-width="0.2"/>
      <path id="Tracé_7542" data-name="Tracé 7542" d="M305.426,262.48s18.44,6.557,24.02-7.725c0,0-8.727-10.616-3.962-19.289,3-5.464,11.287-17.525,11.287-17.525s3.463-3.288,4.54-6.591a12.207,12.207,0,0,0-3.2-6.173,4.014,4.014,0,0,0-1.492-2.941c-1.464-1.068-4.15-3.122-4.15-3.122s-4.415-10.591-5.071-12.5a57.81,57.81,0,0,1-2.632-9.529c-.659-4-1.268-8.3-2.666-8.287,0,0-1.442-.625-1.442,1.939a4.964,4.964,0,0,0-2.582,4.865c.446,3.3.859,5.011.74,6.869s.478,8.308,1.97,10.332c0,0,.5,9.055,1.249,11.412.025.072.047.137.069.2.787,2-7.075,9.679-11.331,11.759,0,0-.447.831-2.1.6s-4.446-.334-4.927-1.561-3.681-10.8-3.681-10.8-2.588-12.271-7.759-12.267a1.906,1.906,0,0,0-2.81-.849c-2.026,1.024-.7,6.607.2,9.66s3.166,11.081,3.534,14.775-1.724,11.094-.937,14,1.661,4.874,4.171,9.638S304.53,258.336,305.426,262.48Z" transform="translate(-267.109 -146.045)" fill="#fff"/>
      <path id="Tracé_7543" data-name="Tracé 7543" d="M304.992,311.591s-3.947-14.856-9.748-24.463-2.389-13-2.389-21-6.516-21.609-4.758-24.61,4.156-.6,5.158,2.2-.4,4.4-3.21,4.6" transform="translate(-266.674 -195.156)" fill="none" stroke="#263238" stroke-linecap="round" stroke-linejoin="round" stroke-width="0.2"/>
      <path id="Tracé_7544" data-name="Tracé 7544" d="M300.84,243.748s3.369-.206,5.439,5.18,5.386,19.046,8.839,23.2" transform="translate(-275.645 -197.642)" fill="none" stroke="#263238" stroke-linecap="round" stroke-linejoin="round" stroke-width="0.2"/>
      <path id="Tracé_7545" data-name="Tracé 7545" d="M337.84,318.49c.019.044,4.824,2.723,12.28.375" transform="translate(-301.093 -249.049)" fill="none" stroke="#263238" stroke-linecap="round" stroke-linejoin="round" stroke-width="0.2"/>
      <path id="Tracé_7546" data-name="Tracé 7546" d="M302.89,291.65a3.375,3.375,0,0,1,3.154-1.2" transform="translate(-277.055 -229.736)" fill="none" stroke="#263238" stroke-linecap="round" stroke-linejoin="round" stroke-width="0.2"/>
      <path id="Tracé_7547" data-name="Tracé 7547" d="M304.94,297.687a2.688,2.688,0,0,1,2.713-.884" transform="translate(-278.465 -234.078)" fill="none" stroke="#263238" stroke-linecap="round" stroke-linejoin="round" stroke-width="0.2"/>
      <path id="Tracé_7548" data-name="Tracé 7548" d="M366.97,175.12c-4.9,1.633-1.249,9.036-1.842,11.737s.937,7.871,2.114,10.675c0,3.288,1.171,11.265,1.171,11.265-.724,2.538-6.769,10.019-12.642,12.361" transform="translate(-313.424 -150.443)" fill="none" stroke="#263238" stroke-linecap="round" stroke-linejoin="round" stroke-width="0.2"/>
      <path id="Tracé_7549" data-name="Tracé 7549" d="M395.234,174.577s-.365-5.667-2.154-5.667-1.68,3.819-.937,6.654S395.777,177.993,395.234,174.577Z" transform="translate(-338.092 -146.172)" fill="none" stroke="#263238" stroke-linecap="round" stroke-linejoin="round" stroke-width="0.2"/>
      <path id="Tracé_7550" data-name="Tracé 7550" d="M403.16,187.06s1.524,8.908,4.106,14.5" transform="translate(-346.018 -158.655)" fill="none" stroke="#263238" stroke-linecap="round" stroke-linejoin="round" stroke-width="0.2"/>
      <path id="Tracé_7551" data-name="Tracé 7551" d="M422.422,261.32a17.5,17.5,0,0,0,2.264-6.373c-.115-1.527-1.873-6.51-3.915-11.337" transform="translate(-358.13 -197.548)" fill="none" stroke="#263238" stroke-linecap="round" stroke-linejoin="round" stroke-width="0.2"/>
      <path id="Tracé_7552" data-name="Tracé 7552" d="M430,267.56c2.026,1.524,5.551,2.695,5.146,5.324a22.1,22.1,0,0,1-2.716,7.459" transform="translate(-364.478 -214.021)" fill="none" stroke="#263238" stroke-linecap="round" stroke-linejoin="round" stroke-width="0.2"/>
      <path id="Tracé_7553" data-name="Tracé 7553" d="M408.392,335.122s-7.059-9.8-5.645-16.57c1.04-4.98,7.724-13.688,12.52-20.9,2.642-2.463,3.962-4.371,4.54-6.591-.846-4.168-2.22-5.383-3.541-6.451" transform="translate(-345.605 -225.747)" fill="none" stroke="#263238" stroke-linecap="round" stroke-linejoin="round" stroke-width="0.2"/>
      <path id="Tracé_7554" data-name="Tracé 7554" d="M416.905,272.25a5.966,5.966,0,0,0-4.705.64" transform="translate(-352.235 -217.093)" fill="none" stroke="#263238" stroke-linecap="round" stroke-linejoin="round" stroke-width="0.2"/>
      <path id="Tracé_7555" data-name="Tracé 7555" d="M419.851,278a4.449,4.449,0,0,0-2.791.49" transform="translate(-355.578 -221.166)" fill="none" stroke="#263238" stroke-linecap="round" stroke-linejoin="round" stroke-width="0.2"/>
    </g>
  </g>
</svg>
