<svg width="40.000000" height="40.000000" viewBox="0 0 40 40" fill="none" xmlns="http://www.w3.org/2000/svg" xmlns:xlink="http://www.w3.org/1999/xlink">
	<desc>
			Created with Pixso.
	</desc>
	<defs>
		<clipPath id="clip6397_15467">
			<rect id="eng 1" width="40.000000" height="40.000000" fill="white" fill-opacity="0"/>
		</clipPath>
	</defs>
	<rect id="eng 1" width="40.000000" height="40.000000" fill="#FFFFFF" fill-opacity="0"/>
	<g clip-path="url(#clip6397_15467)">
		<path id="Vector" d="M40 20C40 31.0457 31.0457 40 20 40C8.9543 40 0 31.0457 0 20C0 8.95431 8.9543 0 20 0C31.0457 0 40 8.95431 40 20Z" fill="#80D261" fill-opacity="1.000000" fill-rule="evenodd"/>
		<path id="Vector" d="M12.4727 38.5351C14.7961 39.4796 17.3373 40 20 40C31.0457 40 40 31.0457 40 20C40 19.3556 39.9695 18.7183 39.9099 18.0895L27.9865 6.16609L12.4615 17.9916L19.1339 24.6641L4.72501 30.7875L12.4727 38.5351Z" fill="#08B865" fill-opacity="1.000000" fill-rule="nonzero"/>
		<path id="Vector" d="M24.9704 4.75211L15.0296 4.75211C12.8623 4.75211 11.1055 6.50898 11.1055 8.67625L11.1055 15.0259C11.1055 17.1932 12.8623 18.9501 15.0296 18.9501L17.9745 18.9501L20 22.1314L22.0254 18.95L24.9703 18.95C27.1376 18.95 28.8945 17.1931 28.8945 15.0259L28.8945 8.67617C28.8945 6.50898 27.1376 4.75211 24.9704 4.75211Z" fill="#367BEA" fill-opacity="1.000000" fill-rule="nonzero"/>
		<path id="Vector" d="M22.0254 18.9501L24.9703 18.9501C27.1376 18.9501 28.8945 17.1932 28.8945 15.0259L28.8945 8.67625C28.8945 6.50906 27.1376 4.75211 24.9703 4.75211L20 4.75211L20 22.1315L22.0254 18.9501Z" fill="#1C5BC9" fill-opacity="1.000000" fill-rule="nonzero"/>
		<path id="Vector" d="M20.2014 11.9888L18.1856 8.78062L17.087 8.78062L17.087 14.3541L18.2526 14.3541L18.2526 11.078L20.2684 14.3541L21.367 14.3541L21.367 8.77235L20.2014 8.77235L20.2014 11.9888Z" fill="#FFFFFF" fill-opacity="1.000000" fill-rule="nonzero"/>
		<path id="Vector" d="M20.2684 14.3541L21.367 14.3541L21.367 8.77235L20.2014 8.77235L20.2014 11.9888L20 11.6681L20 13.918L20.2684 14.3541Z" fill="#E0E0E0" fill-opacity="1.000000" fill-rule="nonzero"/>
		<path id="Vector" d="M24.1219 22.9323C22.2885 22.9323 20.7099 24.0234 20 25.5916C19.2901 24.0234 17.7115 22.9323 15.878 22.9323L6.43936 22.9323L6.43936 28.3251L17.8308 28.3251L20 30.0073L22.1692 28.3251L33.5607 28.3251L33.5607 22.9323L24.1219 22.9323Z" fill="#FFFFFF" fill-opacity="1.000000" fill-rule="nonzero"/>
		<path id="Vector" d="M24.122 22.9323C22.2885 22.9323 20.7099 24.0234 20 25.5916L20 30.0073L22.1691 28.3251L33.5606 28.3251L33.5606 22.9323L24.122 22.9323Z" fill="#E0E0E0" fill-opacity="1.000000" fill-rule="nonzero"/>
		<path id="Vector" d="M35.275 27.831L23.0157 27.831C22.2958 27.831 21.6075 28.127 21.1122 28.6494L20 29.8225L18.8878 28.6494C18.3925 28.127 17.7042 27.831 16.9843 27.831L4.72501 27.831L4.72501 30.7874L16.3308 30.7874C16.9998 30.7874 17.5804 31.2487 17.7318 31.9003L18.0312 33.1895L21.9688 33.1895L22.2682 31.9003C22.4195 31.2487 23.0002 30.7874 23.6692 30.7874L35.275 30.7874L35.275 27.831Z" fill="#52525B" fill-opacity="1.000000" fill-rule="nonzero"/>
		<path id="Vector" d="M24.6434 10.9805L24.6434 12.146L25.8919 12.146C25.7462 12.7034 25.3684 13.1885 24.6412 13.1885C23.745 13.1885 23.0159 12.4594 23.0159 11.5632C23.0159 10.667 23.745 9.9379 24.6412 9.9379C24.967 9.9379 25.281 10.0338 25.5495 10.2151L26.0323 10.5413L26.6848 9.57555L26.202 9.2493C25.7401 8.93727 25.2004 8.77235 24.6412 8.77235C23.1023 8.77235 21.8503 10.0244 21.8503 11.5632C21.8503 13.102 23.1023 14.3541 24.6412 14.3541C26.1066 14.3541 27.1301 13.2064 27.1301 11.5632L27.1301 10.9804L24.6434 10.9804L24.6434 10.9805Z" fill="#E0E0E0" fill-opacity="1.000000" fill-rule="nonzero"/>
		<path id="Vector" d="M23.0158 27.831C22.2959 27.831 21.6076 28.127 21.1123 28.6494L20 29.8225L20 33.1895L21.9688 33.1895L22.2682 31.9003C22.4195 31.2487 23.0002 30.7874 23.6692 30.7874L35.275 30.7874L35.275 27.831L23.0158 27.831Z" fill="#2C2C33" fill-opacity="1.000000" fill-rule="nonzero"/>
		<path id="Vector" d="M13.5485 14.3541L16.5798 14.3541L16.5798 13.1801L14.7226 13.1801L14.7226 12.1502L16.4428 12.1502L16.4428 10.9762L14.7226 10.9762L14.7226 9.94641L16.5798 9.94641L16.5798 8.77235L13.5485 8.77235L13.5485 14.3541Z" fill="#FFFFFF" fill-opacity="1.000000" fill-rule="nonzero"/>
	</g>
</svg>
