<svg width="40.000000" height="40.000000" viewBox="0 0 40 40" fill="none" xmlns="http://www.w3.org/2000/svg" xmlns:xlink="http://www.w3.org/1999/xlink">
	<desc>
			Created with Pixso.
	</desc>
	<defs>
		<clipPath id="clip6397_15461">
			<rect id="german-flag" width="40.000000" height="40.000000" fill="white" fill-opacity="0"/>
		</clipPath>
	</defs>
	<rect id="german-flag" width="40.000000" height="40.000000" fill="#FFFFFF" fill-opacity="0"/>
	<g clip-path="url(#clip6397_15461)">
		<path id="Vector" d="M40 20C40 31.0458 31.0458 40 20 40C8.95416 40 0 31.0458 0 20C0 8.95416 8.95416 0 20 0C31.0458 0 40 8.95416 40 20Z" fill="#1FCB79" fill-opacity="1.000000" fill-rule="nonzero"/>
		<path id="Vector" d="M40 21.056L25.6 8.39999L18 11.6L18 18.8L10.8 28.4L21.751 40C31.8298 40 40 31.5186 40 21.056Z" fill="#18A965" fill-opacity="1.000000" fill-rule="nonzero"/>
		<path id="Vector" d="M31 31.6026C31 32.5721 29.6173 33.2688 26.8531 33.6924C25.1947 33.9487 23.4589 34.0769 21.6467 34.0769C13.8815 34.0769 10 31.535 10 26.4523C10 24.1452 11.0533 22.2051 13.1587 20.6338C14.182 19.8647 15.8879 18.995 18.2763 18.0254C17.1229 17.5235 16.3412 17.1174 15.9292 16.8043C15.164 16.2134 14.782 15.4835 14.782 14.6137C14.782 12.5845 15.6349 10.5172 17.3408 8.41069C19.1881 6.1369 21.2058 5 23.3939 5C26.217 5 28.1882 6.63293 29.3055 9.89882C29.3881 10.1444 29.4294 10.389 29.4294 10.6346C29.4294 11.3038 29.2291 11.6374 28.8295 11.6374C28.4061 11.6374 27.5563 11.4564 26.2789 11.0944C25.0027 10.7324 23.999 10.5514 23.27 10.5514C22.2343 10.5514 21.3049 10.6913 20.4819 10.9692C19.5051 11.3038 19.0177 11.7441 19.0177 12.29C19.0177 12.6471 19.629 13.0033 20.8526 13.3604C22.2993 13.784 24.0351 13.9954 26.059 13.9954C27.3177 13.9954 28.688 13.9005 30.1708 13.7106C30.6293 13.6549 30.8596 13.7332 30.8596 13.9445C30.8596 14.056 30.8183 14.2292 30.7357 14.463L28.7417 20.0976C27.6946 19.897 26.6125 19.7963 25.4942 19.7963C23.2937 19.7963 21.5001 20.17 20.1123 20.9165C18.3589 21.8529 17.4833 23.2852 17.4833 25.2136C17.4833 27.3094 18.2949 28.7691 19.9181 29.5949C21.0943 30.1966 22.8125 30.498 25.0708 30.498C27.0586 30.498 28.435 30.5087 29.2002 30.5312C30.4001 30.5645 31 30.9226 31 31.6026Z" fill="#FFFFFF" fill-opacity="1.000000" fill-rule="nonzero"/>
	</g>
</svg>
