<svg width="40.000000" height="40.000000" viewBox="0 0 40 40" fill="none" xmlns="http://www.w3.org/2000/svg" xmlns:xlink="http://www.w3.org/1999/xlink">
	<desc>
			Created with Pixso.
	</desc>
	<defs>
		<clipPath id="clip6397_15472">
			<rect id="chemistry" width="40.000000" height="40.000000" fill="white" fill-opacity="0"/>
		</clipPath>
	</defs>
	<rect id="chemistry" width="40.000000" height="40.000000" fill="#FFFFFF" fill-opacity="0"/>
	<g clip-path="url(#clip6397_15472)">
		<path id="Vector" d="M40 20C40 31.0457 31.0457 40 20 40C8.9543 40 0 31.0457 0 20C0 8.95431 8.9543 0 20 0C31.0457 0 40 8.95431 40 20Z" fill="#7584F2" fill-opacity="1.000000" fill-rule="evenodd"/>
		<path id="Vector" d="M40 20C40 18.1468 39.748 16.3525 39.2763 14.6494L32.7858 8.15891L24.7427 12.1145L28.878 16.2498L28.222 17.608L18.5912 7.97719L11.032 11.6948L19.424 20.0867L8.5818 29.9659L18.6021 39.9519C19.0639 39.9837 19.5301 40 20 40C31.0457 40 40 31.0457 40 20Z" fill="#4855B7" fill-opacity="1.000000" fill-rule="nonzero"/>
		<path id="Vector" d="M17.8476 15.4984L17.8476 9.14578L11.7756 9.14578L11.7756 15.4984C8.63751 16.6525 6.34001 19.5444 6.0479 23.0072L23.5753 23.0072C23.2831 19.5443 20.9856 16.6524 17.8476 15.4984Z" fill="#FFFFFF" fill-opacity="1.000000" fill-rule="nonzero"/>
		<path id="Vector" d="M17.8476 15.4984L17.8476 9.14578L14.8013 9.14578L14.8013 23.0072L23.5752 23.0072C23.2831 19.5443 20.9856 16.6524 17.8476 15.4984Z" fill="#E9EDF5" fill-opacity="1.000000" fill-rule="nonzero"/>
		<path id="Vector" d="M6.07078 22.7755C6.03508 23.0976 6.01562 23.4247 6.01562 23.7563C6.01562 28.6142 9.95367 32.5523 14.8116 32.5523C19.6695 32.5523 23.6075 28.6142 23.6075 23.7563C23.6075 23.4247 23.588 23.0976 23.5523 22.7755L6.07078 22.7755Z" fill="#FE6A16" fill-opacity="1.000000" fill-rule="nonzero"/>
		<path id="Vector" d="M23.5523 22.7755L14.8013 22.7755L14.8013 32.5521C14.8048 32.5521 14.8081 32.5523 14.8116 32.5523C19.6695 32.5523 23.6075 28.6142 23.6075 23.7563C23.6076 23.4246 23.5881 23.0976 23.5523 22.7755Z" fill="#F24500" fill-opacity="1.000000" fill-rule="nonzero"/>
		<path id="Vector" d="M11.032 7.97726L18.5912 7.97726L18.5912 11.6948L11.032 11.6948L11.032 7.97726Z" fill="#E9EDF5" fill-opacity="1.000000" fill-rule="nonzero"/>
		<path id="Vector" d="M14.8013 7.97719L18.5912 7.97719L18.5912 11.6948L14.8013 11.6948L14.8013 7.97719Z" fill="#CDD2E1" fill-opacity="1.000000" fill-rule="nonzero"/>
		<path id="Vector" d="M25.7169 10.1367L31.8116 10.1367L31.8116 20.0546L25.7169 20.0546L25.7169 10.1367Z" fill="#FFFFFF" fill-opacity="1.000000" fill-rule="nonzero"/>
		<path id="Vector" d="M28.7867 10.1367L31.8116 10.1367L31.8116 20.0546L28.7867 20.0546L28.7867 10.1367Z" fill="#E9EDF5" fill-opacity="1.000000" fill-rule="nonzero"/>
		<path id="Vector" d="M25.7169 19.6798L25.7169 28.9771C25.7169 30.6601 27.0812 32.0244 28.7642 32.0244C30.4472 32.0244 31.8115 30.6601 31.8115 28.9771L31.8115 19.6798L25.7169 19.6798Z" fill="#FFCE00" fill-opacity="1.000000" fill-rule="nonzero"/>
		<path id="Vector" d="M28.7867 19.6798L28.7867 32.0239C30.4592 32.0118 31.8116 30.6527 31.8116 28.9772L31.8116 19.6798L28.7867 19.6798Z" fill="#FDBA12" fill-opacity="1.000000" fill-rule="nonzero"/>
		<path id="Vector" d="M24.7427 8.15898L32.7858 8.15898L32.7858 12.1146L24.7427 12.1146L24.7427 8.15898Z" fill="#E9EDF5" fill-opacity="1.000000" fill-rule="nonzero"/>
		<path id="Vector" d="M28.7867 8.15898L32.7858 8.15898L32.7858 12.1146L28.7867 12.1146L28.7867 8.15898Z" fill="#CDD2E1" fill-opacity="1.000000" fill-rule="nonzero"/>
		<path id="Vector" d="M15.8941 28.5872C15.8941 29.5501 15.1135 30.3307 14.1505 30.3307C13.1876 30.3307 12.407 29.5501 12.407 28.5872C12.407 27.6243 13.1876 26.8437 14.1505 26.8437C15.1135 26.8437 15.8941 27.6243 15.8941 28.5872Z" fill="#FFFFFF" fill-opacity="1.000000" fill-rule="evenodd"/>
		<path id="Vector" d="M15.8941 28.5872C15.8941 27.8545 15.4418 27.2277 14.8013 26.9697L14.8013 30.2046C15.4418 29.9467 15.8941 29.32 15.8941 28.5872Z" fill="#E9EDF5" fill-opacity="1.000000" fill-rule="nonzero"/>
		<path id="Vector" d="M11.3059 24.9C11.3059 25.5518 10.7775 26.0802 10.1257 26.0802C9.47392 26.0802 8.94554 25.5518 8.94554 24.9C8.94554 24.2482 9.47392 23.7198 10.1257 23.7198C10.7775 23.7198 11.3059 24.2482 11.3059 24.9Z" fill="#FFFFFF" fill-opacity="1.000000" fill-rule="evenodd"/>
		<path id="Vector" d="M31.1246 22.2608C31.1246 22.9126 30.5962 23.4409 29.9444 23.4409C29.2927 23.4409 28.7643 22.9126 28.7643 22.2608C28.7643 21.609 29.2927 21.0806 29.9444 21.0806C30.5962 21.0806 31.1246 21.609 31.1246 22.2608Z" fill="#E9EDF5" fill-opacity="1.000000" fill-rule="evenodd"/>
		<path id="Vector" d="M21.1802 26.0802C21.1802 26.7319 20.6518 27.2603 20 27.2603C19.3482 27.2603 18.8199 26.7319 18.8199 26.0802C18.8199 25.4284 19.3482 24.9 20 24.9C20.6518 24.9 21.1802 25.4284 21.1802 26.0802Z" fill="#E9EDF5" fill-opacity="1.000000" fill-rule="evenodd"/>
		<path id="Vector" d="M28.7642 25.8521C28.7642 26.5039 28.2358 27.0323 27.5841 27.0323C26.9323 27.0323 26.4039 26.5039 26.4039 25.8521C26.4039 25.2003 26.9323 24.672 27.5841 24.672C28.2358 24.672 28.7642 25.2003 28.7642 25.8521Z" fill="#FFFFFF" fill-opacity="1.000000" fill-rule="evenodd"/>
	</g>
</svg>
