<svg width="40.000000" height="40.000000" viewBox="0 0 40 40" fill="none" xmlns="http://www.w3.org/2000/svg" xmlns:xlink="http://www.w3.org/1999/xlink">
	<desc>
			Created with Pixso.
	</desc>
	<defs>
		<clipPath id="clip6397_15475">
			<rect id="painting-palette" width="40.000000" height="40.000000" fill="white" fill-opacity="0"/>
		</clipPath>
	</defs>
	<rect id="painting-palette" width="40.000000" height="40.000000" fill="#FFFFFF" fill-opacity="0"/>
	<g clip-path="url(#clip6397_15475)">
		<path id="Vector" d="M40 20C40 31.0457 31.0457 40 20 40C8.95432 40 0 31.0457 0 20C0 8.95431 8.95432 0 20 0C31.0457 0 40 8.95431 40 20Z" fill="#00C8C8" fill-opacity="1.000000" fill-rule="evenodd"/>
		<path id="Vector" d="M40 20C40 18.8635 39.9052 17.7491 39.723 16.6645L28.954 5.89547L26.457 11.4241L8.63382 29.2402L19.3844 39.9907C19.5888 39.9969 19.7941 40 20 40C31.0457 40 40 31.0457 40 20Z" fill="#13AAAA" fill-opacity="1.000000" fill-rule="nonzero"/>
		<path id="Vector" d="M27.6799 24.9078L28.8475 24.9078C30.275 24.9078 31.4771 23.8405 31.6464 22.423C31.7161 21.8397 31.7474 21.2445 31.7377 20.6401C31.623 13.4715 25.8264 7.7718 18.6569 7.7718C11.4265 7.7718 5.5661 13.6373 5.57437 20.8697C5.58258 28.0126 11.3877 33.8687 18.5302 33.9363C18.5706 33.9367 18.611 33.9369 18.6513 33.937C20.2077 33.9376 21.4693 32.6748 21.4693 31.1184C21.4694 27.6884 24.2499 24.9078 27.6799 24.9078Z" fill="#FFFFFF" fill-opacity="1.000000" fill-rule="nonzero"/>
		<path id="Vector" d="M20.0565 7.8457L20.0565 33.5614C20.9007 33.0745 21.4694 32.1629 21.4694 31.1184C21.4694 27.6884 24.2499 24.9078 27.6799 24.9078L28.8475 24.9078C30.275 24.9078 31.4771 23.8405 31.6464 22.423C31.7161 21.8397 31.7474 21.2445 31.7377 20.6402C31.6306 13.9445 26.5663 8.53086 20.0565 7.8457Z" fill="#E9EDF5" fill-opacity="1.000000" fill-rule="nonzero"/>
		<path id="Vector" d="M15.8769 13.877C15.8769 15.2318 14.7787 16.33 13.4239 16.33C12.0692 16.33 10.9709 15.2318 10.9709 13.877C10.9709 12.5223 12.0692 11.4241 13.4239 11.4241C14.7787 11.4241 15.8769 12.5223 15.8769 13.877Z" fill="#7584F2" fill-opacity="1.000000" fill-rule="evenodd"/>
		<path id="Vector" d="M17.9782 28.5366C17.9782 29.8913 16.88 30.9895 15.5252 30.9895C14.1705 30.9895 13.0723 29.8913 13.0723 28.5366C13.0723 27.1818 14.1705 26.0836 15.5252 26.0836C16.88 26.0836 17.9782 27.1818 17.9782 28.5366Z" fill="#707789" fill-opacity="1.000000" fill-rule="evenodd"/>
		<path id="Vector" d="M12.6063 22.0225C12.6063 23.3772 11.508 24.4755 10.1533 24.4755C8.79855 24.4755 7.70032 23.3772 7.70032 22.0225C7.70032 20.6678 8.79855 19.5695 10.1533 19.5695C11.508 19.5695 12.6063 20.6678 12.6063 22.0225Z" fill="#A3D4FF" fill-opacity="1.000000" fill-rule="evenodd"/>
		<path id="Vector" d="M24.0744 12.5688C24.0744 13.9235 22.9761 15.0217 21.6214 15.0217C20.2667 15.0217 19.1684 13.9235 19.1684 12.5688C19.1684 11.214 20.2667 10.1158 21.6214 10.1158C22.9761 10.1158 24.0744 11.214 24.0744 12.5688Z" fill="#FFCE00" fill-opacity="1.000000" fill-rule="evenodd"/>
		<path id="Vector" d="M28.1859 34.1769C27.5691 34.1769 27.0587 33.7281 27.0206 33.1523L25.7914 14.5663C25.7295 13.6304 26.5244 12.8395 27.5269 12.8395L28.845 12.8395C29.8476 12.8395 30.6424 13.6304 30.5805 14.5663L29.3513 33.1523C29.3132 33.7281 28.8027 34.1769 28.1859 34.1769Z" fill="#FE6A16" fill-opacity="1.000000" fill-rule="nonzero"/>
		<path id="Vector" d="M28.8449 12.8396L28.1513 12.8396L28.1513 34.1753C28.1629 34.1756 28.1742 34.1769 28.1859 34.1769C28.8027 34.1769 29.3131 33.7281 29.3513 33.1523L30.5805 14.5663C30.6424 13.6304 29.8475 12.8396 28.8449 12.8396Z" fill="#F24500" fill-opacity="1.000000" fill-rule="nonzero"/>
		<path id="Vector" d="M30.7613 10.9449C30.7613 12.3673 29.6082 13.5203 28.1859 13.5203C26.7635 13.5203 25.6105 12.3673 25.6105 10.9449C25.6105 9.52258 26.7635 5.51367 28.1859 5.51367C29.6082 5.51367 30.7613 9.52266 30.7613 10.9449Z" fill="#555A66" fill-opacity="1.000000" fill-rule="nonzero"/>
		<path id="Vector" d="M28.1859 5.51375C28.1744 5.51375 28.1629 5.51476 28.1514 5.51531L28.1514 13.5195C28.163 13.5197 28.1744 13.5204 28.1859 13.5204C29.6083 13.5204 30.7613 12.3673 30.7613 10.945C30.7613 9.52265 29.6083 5.51375 28.1859 5.51375Z" fill="#333940" fill-opacity="1.000000" fill-rule="nonzero"/>
	</g>
</svg>
