<svg width="40.000000" height="40.000000" viewBox="0 0 40 40" fill="none" xmlns="http://www.w3.org/2000/svg" xmlns:xlink="http://www.w3.org/1999/xlink">
	<desc>
			Created with Pixso.
	</desc>
	<defs>
		<clipPath id="clip6397_15462">
			<rect id="languages 1" width="40.000000" height="40.000000" fill="white" fill-opacity="0"/>
		</clipPath>
	</defs>
	<rect id="languages 1" width="40.000000" height="40.000000" fill="#FFFFFF" fill-opacity="0"/>
	<g clip-path="url(#clip6397_15462)">
		<path id="Vector" d="M40 20C40 31.0457 31.0457 40 20 40C8.9543 40 0 31.0457 0 20C0 8.95431 8.9543 0 20 0C31.0457 0 40 8.95431 40 20Z" fill="#FF9441" fill-opacity="1.000000" fill-rule="evenodd"/>
		<path id="Vector" d="M7.39195 32.608L13.8041 39.0202C15.7551 39.6553 17.8371 40 20 40C31.0457 40 40 31.0457 40 20C40 17.8371 39.6552 15.755 39.0202 13.8041L32.608 7.39195L7.39195 32.608Z" fill="#FF7149" fill-opacity="1.000000" fill-rule="nonzero"/>
		<path id="Vector" d="M32.608 7.39195L21.4775 7.39195L16.3062 23.6445L32.608 23.6445L32.608 7.39195Z" fill="#54A5FF" fill-opacity="1.000000" fill-rule="nonzero"/>
		<path id="Vector" d="M10.347 7.39195L21.4775 7.39195L21.4775 23.6445L10.347 23.6445L10.347 7.39195Z" fill="#89C1FF" fill-opacity="1.000000" fill-rule="nonzero"/>
		<path id="Vector" d="M29.6531 10.347L18.5225 10.347L15.5675 18.4733L18.5225 26.5995L29.6531 26.5995L29.6531 10.347Z" fill="#C0C8D2" fill-opacity="1.000000" fill-rule="nonzero"/>
		<path id="Vector" d="M7.39195 10.347L7.39195 32.608L13.4005 26.5995L18.5225 26.5995L18.5225 10.347L7.39195 10.347Z" fill="#DAE0E7" fill-opacity="1.000000" fill-rule="nonzero"/>
		<path id="Vector" d="M21.2477 13.302L19.7702 18.4733L21.2477 23.6445L26.698 23.6445L26.698 13.302L21.2477 13.302Z" fill="#F72553" fill-opacity="1.000000" fill-rule="nonzero"/>
		<path id="Vector" d="M21.2477 13.302L18.5225 13.302L17.045 18.4733L18.5225 23.6445L21.2477 23.6445L21.2477 13.302Z" fill="#EDEFF3" fill-opacity="1.000000" fill-rule="nonzero"/>
		<path id="Vector" d="M15.7973 13.302L14.3198 18.4733L15.7973 23.6445L18.5225 23.6445L18.5225 13.302L15.7973 13.302Z" fill="#FFFFFF" fill-opacity="1.000000" fill-rule="nonzero"/>
		<path id="Vector" d="M10.347 13.302L15.7973 13.302L15.7973 23.6445L10.347 23.6445L10.347 13.302Z" fill="#1E8AFF" fill-opacity="1.000000" fill-rule="nonzero"/>
	</g>
</svg>
