<svg width="40.000000" height="40.000000" viewBox="0 0 40 40" fill="none" xmlns="http://www.w3.org/2000/svg" xmlns:xlink="http://www.w3.org/1999/xlink">
	<desc>
			Created with Pixso.
	</desc>
	<defs>
		<clipPath id="clip6397_15474">
			<rect id="geography" width="40.000000" height="40.000000" fill="white" fill-opacity="0"/>
		</clipPath>
	</defs>
	<rect id="geography" width="40.000000" height="40.000000" fill="#FFFFFF" fill-opacity="0"/>
	<g clip-path="url(#clip6397_15474)">
		<path id="Vector" d="M40 20C40 31.0457 31.0457 40 20 40C8.9543 40 0 31.0457 0 20C0 8.95431 8.9543 0 20 0C31.0457 0 40 8.95431 40 20Z" fill="#FFCE00" fill-opacity="1.000000" fill-rule="evenodd"/>
		<path id="Vector" d="M27.3554 11.3479L25.447 12.7188L15.9903 3.26211L7.38446 13.1486L11.0777 27.01L18.5022 34.4344L15.9277 36.2697L19.6551 39.9971C19.7699 39.9991 19.8849 40.0001 20.0001 40.0001C29.4906 40.0001 37.4372 33.3897 39.4867 24.522L27.3554 11.3479Z" fill="#FFA300" fill-opacity="1.000000" fill-rule="nonzero"/>
		<path id="Vector" d="M28.9445 17.7818C28.3552 22.1959 24.5752 25.6007 20 25.6007C18.0695 25.6007 16.2805 24.9945 14.813 23.962L13.8013 10.0179C15.418 8.48937 17.5995 7.55211 20 7.55211C22.532 7.55211 24.8204 8.59484 26.4592 10.2744L28.9445 17.7818Z" fill="#7584F2" fill-opacity="1.000000" fill-rule="nonzero"/>
		<path id="Vector" d="M20 7.55211C22.532 7.55211 24.8204 8.59484 26.4592 10.2744L28.9445 17.7818C28.3552 22.1959 24.5752 25.6007 20 25.6007L20 7.55211Z" fill="#606AEA" fill-opacity="1.000000" fill-rule="nonzero"/>
		<path id="Vector" d="M26.4588 10.2739L24.0392 10.2739C22.4655 10.2739 21.1897 11.5496 21.1897 13.1234C21.1897 14.6971 22.4654 15.9728 24.0392 15.9728L25.1126 15.9728C25.528 17.0323 26.5595 17.7825 27.7663 17.7825L28.9445 17.7825C28.9971 17.388 29.0243 16.9855 29.0243 16.5766C29.0243 14.1241 28.0462 11.9004 26.4588 10.2739Z" fill="#13AAAA" fill-opacity="1.000000" fill-rule="nonzero"/>
		<path id="Vector" d="M10.9757 16.5764C10.9757 19.6298 12.4922 22.3291 14.8131 23.962L15.1134 23.962C16.687 23.962 17.9628 22.6863 17.9628 21.1126C17.9628 19.7586 17.0184 18.6252 15.7525 18.3352C16.028 17.8966 16.1873 17.3777 16.1873 16.8216C16.1873 15.7091 15.5495 14.7454 14.6198 14.2763C15.0104 13.7886 15.244 13.1698 15.244 12.4963C15.244 11.4343 14.6629 10.508 13.8013 10.0179C12.0614 11.663 10.9757 13.9929 10.9757 16.5764Z" fill="#64E1DC" fill-opacity="1.000000" fill-rule="nonzero"/>
		<path id="Vector" d="M32.308 24.1334L30.3336 22.8707C28.1687 26.2559 24.4809 28.2768 20.4688 28.2768C14.0171 28.2768 8.76836 23.028 8.76836 16.5764C8.76836 11.5441 11.9709 7.08625 16.7373 5.4836L15.9902 3.26203C10.2688 5.18586 6.42461 10.5365 6.42461 16.5764C6.42461 23.7655 11.8543 29.7102 18.8281 30.5252L18.8281 35.3125L21.1719 35.3125L21.1719 30.6032C25.7126 30.3795 29.8373 27.9969 32.308 24.1334Z" fill="#707789" fill-opacity="1.000000" fill-rule="nonzero"/>
		<path id="Vector" d="M32.308 24.1334L30.3336 22.8707C28.1687 26.2559 24.4809 28.2768 20.4688 28.2768C20.3148 28.2768 20.1619 28.2729 20.0094 28.267L20.0094 35.3125L21.1719 35.3125L21.1719 30.6032C25.7126 30.3795 29.8373 27.997 32.308 24.1334Z" fill="#555A66" fill-opacity="1.000000" fill-rule="nonzero"/>
		<path id="Vector" d="M15.9276 32.2019L24.0723 32.2019L24.0723 36.2697L15.9276 36.2697L15.9276 32.2019Z" fill="#555A66" fill-opacity="1.000000" fill-rule="nonzero"/>
		<path id="Vector" d="M20.0094 32.2019L24.0723 32.2019L24.0723 36.2697L20.0094 36.2697L20.0094 32.2019Z" fill="#333940" fill-opacity="1.000000" fill-rule="nonzero"/>
	</g>
</svg>
