<svg width="40.000000" height="40.000000" viewBox="0 0 40 40" fill="none" xmlns="http://www.w3.org/2000/svg" xmlns:xlink="http://www.w3.org/1999/xlink">
	<desc>
			Created with Pixso.
	</desc>
	<defs>
		<clipPath id="clip6397_15471">
			<rect id="computer (1)" width="40.000000" height="40.000000" fill="white" fill-opacity="0"/>
		</clipPath>
	</defs>
	<rect id="computer (1)" width="40.000000" height="40.000000" fill="#FFFFFF" fill-opacity="0"/>
	<g clip-path="url(#clip6397_15471)">
		<path id="Vector" d="M39.9994 19.9997C39.9994 31.0452 31.0452 39.9994 19.9997 39.9994C8.95416 39.9994 0 31.0452 0 19.9997C0 8.95416 8.95416 0 19.9997 0C31.0452 0 39.9994 8.95416 39.9994 19.9997Z" fill="#FFAE0C" fill-opacity="1.000000" fill-rule="evenodd"/>
		<path id="Vector" d="M40 20.0001C40 17.0206 39.3474 14.1938 38.1791 11.6534L34.9217 8.39595C34.7213 8.05 34.3477 7.8154 33.9212 7.8154L6.07875 7.8154C5.44281 7.8154 4.92258 8.33563 4.92258 8.97157L4.92258 27.452C4.92258 27.8784 5.15718 28.252 5.50313 28.4524L16.7938 39.7431C17.854 39.9142 18.9261 40.0001 19.9999 40.0001C31.0457 40 40 31.0457 40 20.0001Z" fill="#E58300" fill-opacity="1.000000" fill-rule="nonzero"/>
		<path id="Vector" d="M16.6006 28.162L23.3996 28.162L23.3996 32.9138L16.6006 32.9138L16.6006 28.162Z" fill="#6D76E7" fill-opacity="1.000000" fill-rule="nonzero"/>
		<path id="Vector" d="M19.9997 28.162L23.3995 28.162L23.3995 32.9138L19.9997 32.9138L19.9997 28.162Z" fill="#394CE2" fill-opacity="1.000000" fill-rule="nonzero"/>
		<path id="Vector" d="M33.9212 28.608L6.07875 28.608C5.44281 28.608 4.92258 28.0877 4.92258 27.4518L4.92258 8.97133C4.92258 8.33539 5.44281 7.81516 6.07875 7.81516L33.9212 7.81516C34.5572 7.81516 35.0774 8.33539 35.0774 8.97133L35.0774 27.4518C35.0773 28.0876 34.5571 28.608 33.9212 28.608Z" fill="#394CE2" fill-opacity="1.000000" fill-rule="nonzero"/>
		<path id="Vector" d="M33.9212 7.81523L19.9997 7.81523L19.9997 28.6079L33.9212 28.6079C34.5571 28.6079 35.0773 28.0876 35.0773 27.4517L35.0773 8.97141C35.0773 8.33554 34.5571 7.81523 33.9212 7.81523Z" fill="#1B2DDD" fill-opacity="1.000000" fill-rule="nonzero"/>
		<path id="Vector" d="M6.49054 9.47336L33.5098 9.47336L33.5098 26.2038L6.49054 26.2038L6.49054 9.47336Z" fill="#F5F5F5" fill-opacity="1.000000" fill-rule="nonzero"/>
		<path id="Vector" d="M19.9997 9.47336L33.5097 9.47336L33.5097 26.2038L19.9997 26.2038L19.9997 9.47336Z" fill="#E1E1E3" fill-opacity="1.000000" fill-rule="nonzero"/>
		<path id="Vector" d="M26.4161 33.6704C26.4161 32.6466 25.5785 31.8091 24.5548 31.8091L15.4452 31.8091C14.4215 31.8091 13.5839 32.6466 13.5839 33.6704L13.5839 35.35L26.4163 35.35L26.4163 33.6704L26.4161 33.6704Z" fill="#394CE2" fill-opacity="1.000000" fill-rule="nonzero"/>
		<path id="Vector" d="M26.4161 35.35L26.4161 33.6704C26.4161 32.6466 25.5785 31.8091 24.5549 31.8091L19.9997 31.8091L19.9997 35.3502L26.4161 35.3502L26.4161 35.35Z" fill="#1B2DDD" fill-opacity="1.000000" fill-rule="nonzero"/>
		<path id="Vector" d="M32.0169 20.108L24.0908 20.108L22.2434 18.3546L19.9997 18.3546L19.9997 17.7016L22.5039 17.7016L24.3513 19.455L32.0169 19.455L32.0169 20.108Z" fill="#394CE2" fill-opacity="1.000000" fill-rule="nonzero"/>
		<path id="Vector" d="M21.0338 18.0283C21.0338 18.5994 20.5708 19.0623 19.9997 19.0623C19.4286 19.0623 18.9656 18.5994 18.9656 18.0283C18.9656 17.4572 19.4286 16.9942 19.9997 16.9942C20.5708 16.9942 21.0338 17.4572 21.0338 18.0283Z" fill="#FF4F19" fill-opacity="1.000000" fill-rule="evenodd"/>
		<path id="Vector" d="M20.0001 19.0621C20.5712 19.0621 21.0341 18.5992 21.0341 18.028C21.0341 17.457 20.5712 16.994 20.0001 16.994L19.9998 16.994L19.9998 19.062C19.9998 19.062 19.9998 19.0621 20.0001 19.0621Z" fill="#ED2400" fill-opacity="1.000000" fill-rule="nonzero"/>
		<path id="Vector" d="M31.944 16.1497L23.528 16.1497L21.1199 13.864L14.6789 13.864L14.6789 13.211L21.3805 13.211L23.7886 15.4967L31.944 15.4967L31.944 16.1497Z" fill="#6D76E7" fill-opacity="1.000000" fill-rule="nonzero"/>
		<path id="Vector" d="M21.1928 13.8573L23.601 16.143L32.0169 16.143L32.0169 15.4899L23.8615 15.4899L21.4534 13.2042L19.9997 13.2042L19.9997 13.8573L21.1928 13.8573Z" fill="#394CE2" fill-opacity="1.000000" fill-rule="nonzero"/>
		<path id="Vector" d="M15.6224 13.5304C15.6224 14.1015 15.1595 14.5645 14.5883 14.5645C14.0173 14.5645 13.5543 14.1015 13.5543 13.5304C13.5543 12.9593 14.0173 12.4963 14.5883 12.4963C15.1595 12.4963 15.6224 12.9593 15.6224 13.5304Z" fill="#FF4F19" fill-opacity="1.000000" fill-rule="evenodd"/>
		<path id="Vector" d="M24.0918 23.8513L16.5788 23.8513L14.1707 21.5656L7.98312 21.5656L7.98312 20.9125L14.4314 20.9125L16.8395 23.1982L24.0918 23.1982L24.0918 23.8513Z" fill="#6D76E7" fill-opacity="1.000000" fill-rule="nonzero"/>
		<path id="Vector" d="M19.9997 23.198L24.0919 23.198L24.0919 23.8511L19.9997 23.8511L19.9997 23.198Z" fill="#394CE2" fill-opacity="1.000000" fill-rule="nonzero"/>
		<path id="Vector" d="M25.1259 23.5245C25.1259 24.0956 24.663 24.5586 24.0919 24.5586C23.5208 24.5586 23.0578 24.0956 23.0578 23.5245C23.0578 22.9534 23.5208 22.4905 24.0919 22.4905C24.663 22.4905 25.1259 22.9534 25.1259 23.5245Z" fill="#ED2400" fill-opacity="1.000000" fill-rule="evenodd"/>
	</g>
</svg>
