<svg width="40.000000" height="40.000000" viewBox="0 0 40 40" fill="none" xmlns="http://www.w3.org/2000/svg" xmlns:xlink="http://www.w3.org/1999/xlink">
	<desc>
			Created with Pixso.
	</desc>
	<defs>
		<clipPath id="clip6397_15470">
			<rect id="atom" width="40.000000" height="40.000000" fill="white" fill-opacity="0"/>
		</clipPath>
	</defs>
	<rect id="atom" width="40.000000" height="40.000000" fill="#FFFFFF" fill-opacity="0"/>
	<g clip-path="url(#clip6397_15470)">
		<path id="Vector" d="M40 20C40 31.0457 31.0457 40 20 40C8.95432 40 0 31.0457 0 20C0 8.95432 8.95432 0 20 0C31.0457 0 40 8.95432 40 20Z" fill="#7FC8F1" fill-opacity="1.000000" fill-rule="evenodd"/>
		<path id="Vector" d="M40 20C40 19.5145 39.9817 19.0334 39.9477 18.5566L33.4055 11.9854C32.5841 11.1361 31.3006 10.6125 29.6391 10.446L25.3462 6.1571C24.9516 5.69006 24.3619 5.39328 23.7026 5.39328C23.4181 5.39328 23.1469 5.44897 22.8983 5.54919C22.008 4.70218 21.0272 4.25702 20 4.25702C17.9756 4.25702 16.1309 5.98264 14.8055 9.11609C14.6049 9.59021 14.4192 10.0898 14.2484 10.6107C13.7067 10.5262 13.1774 10.4647 12.6639 10.4279C9.27124 10.1855 6.89493 11.0447 5.97537 12.8481C5.77585 13.2393 5.6528 13.6602 5.60437 14.1056C4.87595 14.4504 4.37195 15.1919 4.37195 16.0513C4.37195 16.6389 4.60767 17.1711 4.98953 17.5593L7.8764 20.399C5.74139 22.972 5.06546 25.3674 5.97537 27.1518C6.14468 27.4837 6.36359 27.7834 6.62891 28.0502L18.551 39.9473C19.0296 39.9816 19.5126 40 20 40C31.0457 40 40 31.0457 40 20Z" fill="#00ACEA" fill-opacity="1.000000" fill-rule="nonzero"/>
		<path id="Vector" d="M31.7821 20C31.8752 19.8945 31.9669 19.789 32.0558 19.6832C34.245 17.079 34.9443 14.6516 34.0246 12.8482C33.105 11.0448 30.7298 10.1852 27.3361 10.4279C26.8226 10.4647 26.2932 10.5262 25.7516 10.6108C25.5808 10.0898 25.3951 9.5903 25.1945 9.11615C23.8691 5.98273 22.0244 4.25702 20 4.25702C17.9756 4.25702 16.1309 5.98264 14.8055 9.11609C14.6049 9.59021 14.4192 10.0898 14.2484 10.6107C13.7067 10.5262 13.1774 10.4647 12.6639 10.4279C9.27124 10.1855 6.8949 11.0447 5.97537 12.8481C5.05576 14.6516 5.75497 17.0789 7.94421 19.6831C8.03311 19.7889 8.12482 19.8944 8.21786 19.9999C8.12482 20.1054 8.03311 20.2109 7.94421 20.3167C5.75497 22.9209 5.05569 25.3483 5.97537 27.1517C6.79297 28.755 8.76083 29.6122 11.5722 29.6122C11.923 29.6122 12.2873 29.5988 12.664 29.5719C13.1775 29.5352 13.7068 29.4736 14.2485 29.389C14.4193 29.91 14.6049 30.4095 14.8055 30.8837C16.1309 34.0171 17.9757 35.7427 20.0001 35.7427C22.0244 35.7427 23.8692 34.0171 25.1946 30.8837C25.3951 30.4095 25.5808 29.91 25.7516 29.389C26.2933 29.4736 26.8226 29.5351 27.3362 29.5719C27.7129 29.5988 28.0768 29.6122 28.4279 29.6122C31.2389 29.6122 33.2072 28.7548 34.0247 27.1517C34.9444 25.3483 34.2451 22.9209 32.0559 20.3167C31.9669 20.211 31.8752 20.1055 31.7821 20ZM27.4476 11.9865C27.7897 11.962 28.1183 11.9499 28.4336 11.9499C30.5953 11.9499 32.1026 12.5185 32.6327 13.558C33.24 14.7489 32.5938 16.615 30.8597 18.6777C30.8069 18.7406 30.7529 18.8035 30.6984 18.8663C29.5987 17.7993 28.3031 16.7629 26.8629 15.7959C26.7082 14.5092 26.4825 13.2764 26.19 12.1245C26.619 12.0623 27.039 12.0157 27.4476 11.9865ZM22.5201 24.942C21.6812 25.3698 20.838 25.7576 20 26.1032C19.1619 25.7576 18.3188 25.3698 17.4798 24.942C16.4762 24.4301 15.5154 23.88 14.6098 23.3018C14.5062 22.2326 14.4526 21.1266 14.4526 20C14.4526 18.8734 14.5062 17.7675 14.6098 16.6981C15.5153 16.12 16.4762 15.5698 17.4798 15.058C18.3188 14.6302 19.1619 14.2424 20 13.8968C20.838 14.2424 21.6812 14.6302 22.5201 15.058C23.5238 15.5698 24.4846 16.12 25.3901 16.6981C25.4938 17.7674 25.5474 18.8734 25.5474 20C25.5474 21.1266 25.4938 22.2325 25.3901 23.3018C24.4846 23.88 23.5238 24.4301 22.5201 24.942ZM25.1323 25.2912C25.0013 26.0898 24.8401 26.8591 24.6505 27.5916C23.8224 27.408 22.9694 27.1714 22.1019 26.8847C22.4785 26.7086 22.8548 26.5252 23.23 26.3339C23.8818 26.0016 24.5167 25.653 25.1323 25.2912ZM17.898 26.8847C17.0306 27.1714 16.1776 27.408 15.3495 27.5916C15.1598 26.8591 14.9986 26.0898 14.8676 25.2912C15.4832 25.653 16.1182 26.0015 16.77 26.3339C17.1452 26.5252 17.5215 26.7086 17.898 26.8847ZM12.9548 22.1684C12.0043 21.4694 11.1382 20.7416 10.3759 20C11.1383 19.2584 12.0044 18.5305 12.9548 17.8315C12.9122 18.5443 12.8901 19.2683 12.8901 20C12.8901 20.7317 12.9122 21.4557 12.9548 22.1684ZM14.8676 14.7088C14.9986 13.9102 15.1598 13.1408 15.3495 12.4084C16.1776 12.5919 17.0306 12.8286 17.898 13.1153C17.5215 13.2914 17.1451 13.4748 16.77 13.6661C16.1182 13.9984 15.4833 14.347 14.8676 14.7088ZM22.1019 13.1153C22.9694 12.8286 23.8224 12.5919 24.6505 12.4084C24.8401 13.1408 25.0014 13.9102 25.1323 14.7088C24.5168 14.347 23.8818 13.9985 23.23 13.6661C22.8547 13.4748 22.4785 13.2914 22.1019 13.1153ZM27.0451 17.8315C27.9957 18.5306 28.8618 19.2584 29.6241 20C28.8617 20.7416 27.9956 21.4695 27.0451 22.1684C27.0878 21.4557 27.1098 20.7316 27.1098 20C27.1099 19.2683 27.0878 18.5443 27.0451 17.8315ZM16.2445 9.72482C17.2943 7.24295 18.6631 5.81952 20 5.81952C21.3369 5.81952 22.7057 7.24295 23.7555 9.72482C23.915 10.1021 24.0644 10.4974 24.2038 10.9079C22.846 11.2157 21.4308 11.6556 20 12.2141C18.5692 11.6556 17.154 11.2158 15.7961 10.9079C15.9356 10.4974 16.0849 10.1021 16.2445 9.72482ZM7.36725 13.558C7.97461 12.3669 9.86435 11.7942 12.5524 11.9865C12.961 12.0157 13.381 12.0623 13.81 12.1245C13.5176 13.2764 13.2919 14.5092 13.1371 15.7959C11.6969 16.7629 10.4014 17.7993 9.30164 18.8663C9.24716 18.8035 9.19312 18.7406 9.14029 18.6777C7.40616 16.615 6.75992 14.749 7.36725 13.558ZM12.5524 28.0135C9.86453 28.2056 7.97461 27.633 7.36725 26.442C6.75998 25.2511 7.40616 23.385 9.14023 21.3223C9.19312 21.2594 9.2471 21.1965 9.30154 21.1337C10.4013 22.2007 11.6969 23.2371 13.137 24.204C13.2918 25.4908 13.5175 26.7236 13.8099 27.8755C13.381 27.9377 12.961 27.9843 12.5524 28.0135ZM23.7555 30.2751C22.7057 32.757 21.3369 34.1805 20 34.1805C18.6631 34.1805 17.2943 32.757 16.2445 30.2751C16.0849 29.8979 15.9356 29.5026 15.7961 29.0921C17.154 28.7843 18.5692 28.3444 20 27.7859C21.4308 28.3443 22.846 28.7842 24.2038 29.0921C24.0644 29.5026 23.9151 29.8979 23.7555 30.2751ZM32.6327 26.442C32.0255 27.6329 30.1358 28.2056 27.4476 28.0134C27.039 27.9842 26.619 27.9376 26.19 27.8754C26.4824 26.7235 26.7081 25.4907 26.8629 24.204C28.3031 23.237 29.5987 22.2006 30.6984 21.1336C30.7529 21.1964 30.8069 21.2593 30.8597 21.3222C32.5938 23.385 33.2401 25.251 32.6327 26.442Z" fill="#FFFFFF" fill-opacity="1.000000" fill-rule="nonzero"/>
		<path id="Vector" d="M31.782 20C31.875 19.8945 31.9672 19.7891 32.0555 19.6828C34.2453 17.0789 34.9445 14.6516 34.025 12.8484C33.1047 11.0445 30.7297 10.1852 27.3359 10.4281C26.8227 10.4648 26.293 10.5266 25.7516 10.6109C25.5805 10.0898 25.3953 9.59061 25.1945 9.11639C23.8695 5.98279 22.0242 4.25702 20 4.25702L20 5.81952C21.3367 5.81952 22.7055 7.24295 23.7555 9.72498C23.9149 10.1023 24.0641 10.4977 24.2039 10.9078C22.8461 11.2156 21.4305 11.6555 20 12.2141L20 13.8969C20.8383 14.2422 21.6812 14.6305 22.5203 15.0578C23.5234 15.5695 24.4844 16.1203 25.3898 16.6984C25.4937 17.7672 25.5477 18.8734 25.5477 20C25.5477 21.1266 25.4937 22.2328 25.3898 23.3015C24.4844 23.8797 23.5234 24.4305 22.5203 24.9422C21.6812 25.3695 20.8383 25.7578 20 26.1031L20 27.7859C21.4305 28.3445 22.8461 28.7844 24.2039 29.0922C24.0641 29.5023 23.9149 29.8976 23.7555 30.275C22.7055 32.757 21.3367 34.1805 20 34.1805L20 35.743C22.0242 35.743 23.8695 34.0172 25.1945 30.8836C25.3953 30.4094 25.5805 29.9102 25.7516 29.389C26.293 29.4734 26.8227 29.5352 27.3359 29.5719C27.7125 29.5992 28.0766 29.6125 28.4281 29.6125C31.2391 29.6125 33.207 28.7547 34.025 27.1516C34.9445 25.3484 34.2453 22.9211 32.0555 20.3172C31.9672 20.2109 31.875 20.1055 31.782 20ZM23.2297 13.6664C22.8547 13.475 22.4781 13.2914 22.1016 13.1156C22.9695 12.8289 23.8227 12.5922 24.6508 12.4086C24.8398 13.1406 25.0016 13.9102 25.132 14.7086C24.5164 14.3469 23.882 13.9984 23.2297 13.6664ZM24.6508 27.5914C23.8227 27.4078 22.9695 27.1711 22.1016 26.8844C22.4781 26.7086 22.8547 26.525 23.2297 26.3336C23.882 26.0016 24.5164 25.6531 25.132 25.2914C25.0016 26.0898 24.8398 26.8594 24.6508 27.5914ZM27.4477 11.9867C27.7899 11.9617 28.1187 11.95 28.4336 11.95C30.5953 11.95 32.1024 12.5187 32.6328 13.5578C33.2398 14.7492 32.5938 16.6148 30.8594 18.6781C30.807 18.7406 30.7531 18.8031 30.6984 18.8664C29.5984 17.7992 28.3031 16.7625 26.8633 15.7961C26.7078 14.5094 26.4828 13.2766 26.1898 12.1242C26.6187 12.0625 27.0391 12.0156 27.4477 11.9867ZM27.0453 17.8312C27.9961 18.5305 28.8617 19.2586 29.6242 20C28.8617 20.7414 27.9961 21.4695 27.0453 22.1687C27.0875 21.4554 27.1102 20.732 27.1102 20C27.1102 19.2679 27.0875 18.5445 27.0453 17.8312ZM32.6328 26.4422C32.0258 27.6328 30.1359 28.2054 27.4477 28.0133C27.0391 27.9844 26.6187 27.9375 26.1898 27.8758C26.4828 26.7234 26.7078 25.4906 26.8633 24.2039C28.3031 23.2375 29.5984 22.2008 30.6984 21.1336C30.7531 21.1969 30.807 21.2594 30.8594 21.3219C32.5938 23.3851 33.2398 25.2508 32.6328 26.4422Z" fill="#FFF5CB" fill-opacity="1.000000" fill-rule="nonzero"/>
		<path id="Vector" d="M8.67523 16.0516C8.67523 17.24 7.71185 18.2034 6.52344 18.2034C5.33502 18.2034 4.37164 17.24 4.37164 16.0516C4.37164 14.8632 5.33502 13.8998 6.52344 13.8998C7.71185 13.8998 8.67523 14.8632 8.67523 16.0516Z" fill="#FFAA20" fill-opacity="1.000000" fill-rule="evenodd"/>
		<path id="Vector" d="M28.2408 23.9515C28.2408 25.14 27.2775 26.1033 26.0891 26.1033C24.9006 26.1033 23.9373 25.14 23.9373 23.9515C23.9373 22.7631 24.9006 21.7997 26.0891 21.7997C27.2775 21.7997 28.2408 22.7631 28.2408 23.9515Z" fill="#1C2EDE" fill-opacity="1.000000" fill-rule="evenodd"/>
		<path id="Vector" d="M25.8541 7.54529C25.8541 8.7337 24.8907 9.69708 23.7023 9.69708C22.5139 9.69708 21.5505 8.7337 21.5505 7.54529C21.5505 6.35687 22.5139 5.39349 23.7023 5.39349C24.8907 5.39349 25.8541 6.35687 25.8541 7.54529Z" fill="#FF127F" fill-opacity="1.000000" fill-rule="evenodd"/>
		<path id="Vector" d="M23.2812 20C23.2812 21.8122 21.8122 23.2812 20 23.2812C18.1878 23.2812 16.7188 21.8122 16.7188 20C16.7188 18.1878 18.1878 16.7188 20 16.7188C21.8122 16.7188 23.2812 18.1878 23.2812 20Z" fill="#9CFDFF" fill-opacity="1.000000" fill-rule="evenodd"/>
		<path id="Vector" d="M23.2812 20C23.2812 21.8125 21.8125 23.2812 20 23.2812L20 16.7188C21.8125 16.7188 23.2812 18.1875 23.2812 20Z" fill="#00E8F2" fill-opacity="1.000000" fill-rule="nonzero"/>
	</g>
</svg>
